#!OML:ASF H:\Dans Jumps\Project 1\Capture day 1\Session 1\subject.ASF
:FULLY-SPECIFIED
:DEGREES
620
root 0.0949817 17.7718 -6.41103 6.93251 -0.534193 -1.20656
lowerback -1.7152 -0.185941 -0.330481
upperback 3.79293 -0.294663 1.38728
thorax 4.88584 -0.18847 1.60209
lowerneck -10.8523 0.521367 -1.82879
upperneck 38.1414 0.999221 0.727374
head 15.0909 0.257646 0.788736
rclavicle 3.57812e-015 2.18663e-015
rhumerus -13.6127 11.7956 -92.592
rradius 31.9461
rwrist 27.6091
rhand -19.079 -23.799
rfingers 7.12502
rthumb 7.22892 -53.6556
lclavicle 3.57812e-015 2.18663e-015
lhumerus -12.3435 -36.3196 97.2763
lradius 34.362
lwrist 14.339
lhand -25.3683 -6.36693
lfingers 7.12502
lthumb 1.15581 23.6097
rfemur -15.9996 -2.51297 20.448
rtibia 21.6025
rfoot -11.9584 -2.46706
rtoes 15.7388
lfemur -13.83 6.45332 -18.8927
ltibia 17.66
lfoot -8.63497 7.64777
ltoes 8.27967
621
root 0.0945582 17.7713 -6.40663 6.89671 -0.607522 -1.20795
lowerback -1.71685 -0.163432 -0.31745
upperback 3.81031 -0.265127 1.38218
thorax 4.90392 -0.173374 1.59131
lowerneck -10.8471 0.519894 -1.83404
upperneck 38.1316 0.99591 0.733222
head 15.0848 0.256365 0.791479
rclavicle 1.78906e-015 -2.98177e-015
rhumerus -13.7416 11.4476 -92.5435
rradius 31.5734
rwrist 27.8901
rhand -19.0627 -23.8149
rfingers 7.12502
rthumb 7.2446 -53.6709
lclavicle 1.78906e-015 -2.98177e-015
lhumerus -12.5713 -35.9581 97.3276
lradius 33.9138
lwrist 14.0928
lhand -25.305 -6.30179
lfingers 7.12502
lthumb 1.21697 23.6745
rfemur -15.9494 -2.4897 20.4469
rtibia 21.5979
rfoot -11.9695 -2.42201
rtoes 15.7285
lfemur -13.7567 6.50935 -18.8869
ltibia 17.6489
lfoot -8.65516 7.66734
ltoes 8.27696
622
root 0.0942722 17.7708 -6.40177 6.85996 -0.683495 -1.21389
lowerback -1.72451 -0.139959 -0.298498
upperback 3.83308 -0.234692 1.37836
thorax 4.93104 -0.157699 1.57861
lowerneck -10.8514 0.5206 -1.82891
upperneck 38.1228 0.998372 0.72568
head 15.0815 0.25721 0.787707
rclavicle -4.02539e-015 -1.19271e-015
rhumerus -13.8679 11.0483 -92.4796
rradius 31.1926
rwrist 28.1855
rhand -18.9938 -23.8639
rfingers 7.12502
rthumb 7.31116 -53.7176
lclavicle -4.02539e-015 -1.19271e-015
lhumerus -12.7808 -35.5494 97.3574
lradius 33.4207
lwrist 13.8086
lhand -25.2317 -6.2154
lfingers 7.12502
lthumb 1.28781 23.7605
rfemur -15.8948 -2.46551 20.4502
rtibia 21.5883
rfoot -11.9787 -2.37407
rtoes 15.7184
lfemur -13.6824 6.56945 -18.8763
ltibia 17.641
lfoot -8.67745 7.68648
ltoes 8.2682
623
root 0.0939223 17.7705 -6.39732 6.83711 -0.740061 -1.22102
lowerback -1.74087 -0.121826 -0.276494
upperback 3.85254 -0.211594 1.37601
thorax 4.95993 -0.145564 1.5653
lowerneck -10.8605 0.521323 -1.81939
upperneck 38.1141 1.00136 0.71407
head 15.0795 0.258368 0.78156
rclavicle -4.96962e-017 3.57812e-015
rhumerus -13.9965 10.5946 -92.4
rradius 30.8044
rwrist 28.5002
rhand -18.871 -23.9344
rfingers 7.12502
rthumb 7.42967 -53.784
lclavicle -4.96962e-017 3.57812e-015
lhumerus -12.9763 -35.0946 97.3686
lradius 32.8847
lwrist 13.4869
lhand -25.1467 -6.10599
lfingers 7.12502
lthumb 1.36986 23.8694
rfemur -15.8544 -2.44692 20.4561
rtibia 21.5768
rfoot -11.9848 -2.33889
rtoes 15.7074
lfemur -13.6291 6.61535 -18.8648
ltibia 17.6348
lfoot -8.69561 7.69954
ltoes 8.26595
624
root 0.0933539 17.7706 -6.39392 6.83848 -0.764888 -1.22364
lowerback -1.77034 -0.113845 -0.260574
upperback 3.86547 -0.20191 1.37623
thorax 4.98992 -0.140345 1.55725
lowerneck -10.8832 0.52219 -1.80062
upperneck 38.1131 1.00643 0.691862
head 15.0846 0.260228 0.769807
rclavicle 6.4605e-016 -1.98785e-016
rhumerus -14.1225 10.0892 -92.3011
rradius 30.4053
rwrist 28.8492
rhand -18.7032 -23.9951
rfingers 7.12502
rthumb 7.59162 -53.8389
lclavicle 6.4605e-016 -1.98785e-016
lhumerus -13.1541 -34.5838 97.3599
lradius 32.3086
lwrist 13.123
lhand -25.0595 -5.98798
lfingers 7.12502
lthumb 1.45412 23.9868
rfemur -15.8423 -2.43728 20.4598
rtibia 21.5674
rfoot -11.989 -2.32598
rtoes 15.6947
lfemur -13.6102 6.63672 -18.8596
ltibia 17.6261
lfoot -8.7042 7.70424
ltoes 8.26545
625
root 0.0925912 17.771 -6.39169 6.86624 -0.755531 -1.22316
lowerback -1.81316 -0.115717 -0.247703
upperback 3.86943 -0.205328 1.37858
thorax 5.01856 -0.14174 1.55229
lowerneck -10.9044 0.521536 -1.78235
upperneck 38.1091 1.00887 0.670869
head 15.0879 0.261123 0.75821
rclavicle -7.95139e-016 -3.77691e-015
rhumerus -14.252 9.53153 -92.1833
rradius 30.0012
rwrist 29.2377
rhand -18.5288 -24.0474
rfingers 7.12502
rthumb 7.75998 -53.885
lclavicle -7.95139e-016 -3.77691e-015
lhumerus -13.3177 -34.0185 97.3329
lradius 31.6946
lwrist 12.7194
lhand -24.9737 -5.86925
lfingers 7.12502
lthumb 1.53697 24.105
rfemur -15.862 -2.44071 20.4629
rtibia 21.5623
rfoot -11.9922 -2.33325
rtoes 15.6835
lfemur -13.6277 6.62808 -18.8593
ltibia 17.6133
lfoot -8.70013 7.70326
ltoes 8.26638
626
root 0.0916646 17.7715 -6.39015 6.90505 -0.724637 -1.21038
lowerback -1.8559 -0.124949 -0.25001
upperback 3.86618 -0.217855 1.3812
thorax 5.03997 -0.148185 1.55555
lowerneck -10.9141 0.517616 -1.78151
upperneck 38.1035 1.0024 0.672169
head 15.0875 0.258764 0.757633
rclavicle -1.88845e-015 -1.59028e-015
rhumerus -14.3888 8.92808 -92.0455
rradius 29.5859
rwrist 29.6838
rhand -18.3615 -24.0743
rfingers 7.12502
rthumb 7.92143 -53.9059
lclavicle -1.88845e-015 -1.59028e-015
lhumerus -13.4737 -33.3802 97.291
lradius 31.0451
lwrist 12.2631
lhand -24.885 -5.76179
lfingers 7.12502
lthumb 1.62262 24.2118
rfemur -15.895 -2.45122 20.4541
rtibia 21.5604
rfoot -11.9972 -2.35628
rtoes 15.6692
lfemur -13.6608 6.60233 -18.873
ltibia 17.5963
lfoot -8.69152 7.69651
ltoes 8.27571
627
root 0.0905663 17.7722 -6.3894 6.95601 -0.66982 -1.1939
lowerback -1.90195 -0.141427 -0.257481
upperback 3.85834 -0.239887 1.38589
thorax 5.05878 -0.15956 1.56322
lowerneck -10.918 0.512253 -1.78467
upperneck 38.0944 0.993345 0.677046
head 15.084 0.255283 0.758804
rclavicle 1.39149e-015 2.78299e-015
rhumerus -14.5235 8.28022 -91.8873
rradius 29.1546
rwrist 30.1713
rhand -18.2262 -24.0796
rfingers 7.12502
rthumb 8.05207 -53.9062
lclavicle 1.39149e-015 2.78299e-015
lhumerus -13.6168 -32.6566 97.2289
lradius 30.3665
lwrist 11.7429
lhand -24.7945 -5.67333
lfingers 7.12502
lthumb 1.71007 24.2996
rfemur -15.9415 -2.47142 20.4432
rtibia 21.5601
rfoot -12.0033 -2.39274
rtoes 15.6638
lfemur -13.7114 6.5612 -18.8912
ltibia 17.5756
lfoot -8.67623 7.6803
ltoes 8.28012
628
root 0.0900767 17.7724 -6.38658 6.96674 -0.667244 -1.18653
lowerback -1.93137 -0.139875 -0.254183
upperback 3.86785 -0.238406 1.39018
thorax 5.08552 -0.158955 1.56594
lowerneck -10.9223 0.505928 -1.78796
upperneck 38.0886 0.983519 0.680366
head 15.0823 0.251227 0.759265
rclavicle 6.95746e-016 -9.14409e-015
rhumerus -14.665 7.59179 -91.7096
rradius 28.7219
rwrist 30.6911
rhand -18.1251 -24.0761
rfingers 7.12502
rthumb 8.14961 -53.8989
lclavicle 6.95746e-016 -9.14409e-015
lhumerus -13.7481 -31.8533 97.1458
lradius 29.6628
lwrist 11.1623
lhand -24.7016 -5.5821
lfingers 7.12502
lthumb 1.79976 24.3901
rfemur -15.9419 -2.47554 20.4365
rtibia 21.5598
rfoot -12.0162 -2.39344
rtoes 15.6612
lfemur -13.7006 6.55715 -18.8983
ltibia 17.5526
lfoot -8.67576 7.68317
ltoes 8.27754
629
root 0.0896478 17.7724 -6.38331 6.96454 -0.673443 -1.17931
lowerback -1.95148 -0.134947 -0.250994
upperback 3.88258 -0.23242 1.39437
thorax 5.11228 -0.156141 1.56895
lowerneck -10.9292 0.499696 -1.78833
upperneck 38.0874 0.974123 0.681095
head 15.0836 0.247383 0.758246
rclavicle 2.88238e-015 -7.95139e-015
rhumerus -14.8088 6.87385 -91.5135
rradius 28.2843
rwrist 31.2238
rhand -18.047 -24.0793
rfingers 7.12502
rthumb 8.22494 -53.8992
lclavicle 2.88238e-015 -7.95139e-015
lhumerus -13.8649 -30.9664 97.0384
lradius 28.9344
lwrist 10.5196
lhand -24.6039 -5.5196
lfingers 7.12502
lthumb 1.89412 24.4517
rfemur -15.9258 -2.47527 20.4285
rtibia 21.5575
rfoot -12.0301 -2.38909
rtoes 15.6664
lfemur -13.6726 6.56463 -18.9044
ltibia 17.5303
lfoot -8.68278 7.68386
ltoes 8.28089
630
root 0.089273 17.7723 -6.37978 6.95645 -0.687819 -1.17544
lowerback -1.96602 -0.127959 -0.245711
upperback 3.89925 -0.223838 1.39993
thorax 5.13781 -0.151992 1.57237
lowerneck -10.9456 0.496145 -1.77811
upperneck 38.099 0.971165 0.668596
head 15.0934 0.245866 0.750957
rclavicle -4.62174e-015 8.15017e-015
rhumerus -14.952 6.13111 -91.3004
rradius 27.8362
rwrist 31.7682
rhand -17.9861 -24.0957
rfingers 7.12502
rthumb 8.28376 -53.9133
lclavicle -4.62174e-015 8.15017e-015
lhumerus -13.9674 -30.008 96.9034
lradius 28.19
lwrist 9.8307
lhand -24.5088 -5.45646
lfingers 7.12502
lthumb 1.986 24.514
rfemur -15.9017 -2.46981 20.4231
rtibia 21.5528
rfoot -12.0439 -2.38075
rtoes 15.6816
lfemur -13.6375 6.5788 -18.9065
ltibia 17.51
lfoot -8.69387 7.68637
ltoes 8.27855
631
root 0.0889243 17.7723 -6.37627 6.94877 -0.701283 -1.17138
lowerback -1.9772 -0.122133 -0.240527
upperback 3.91463 -0.216792 1.40584
thorax 5.16013 -0.148597 1.57611
lowerneck -10.9642 0.494949 -1.76746
upperneck 38.1146 0.971783 0.655853
head 15.1056 0.245844 0.744088
rclavicle 2.08724e-015 -7.35503e-015
rhumerus -15.0975 5.36637 -91.0708
rradius 27.3816
rwrist 32.3256
rhand -17.9431 -24.1225
rfingers 7.12502
rthumb 8.32526 -53.9384
lclavicle 2.08724e-015 -7.35503e-015
lhumerus -14.0599 -28.9679 96.7402
lradius 27.4354
lwrist 9.08889
lhand -24.4193 -5.40431
lfingers 7.12502
lthumb 2.0724 24.5654
rfemur -15.8783 -2.46394 20.4174
rtibia 21.5477
rfoot -12.0565 -2.37425
rtoes 15.6952
lfemur -13.6047 6.59151 -18.9088
ltibia 17.4923
lfoot -8.707 7.68889
ltoes 8.28196
632
root 0.0884877 17.7723 -6.37321 6.94754 -0.70623 -1.16705
lowerback -1.98877 -0.120669 -0.237425
upperback 3.92855 -0.215534 1.41316
thorax 5.18134 -0.148176 1.58211
lowerneck -10.9924 0.497161 -1.74781
upperneck 38.1376 0.978922 0.63349
head 15.1238 0.248476 0.732698
rclavicle -1.93815e-015 2.18663e-015
rhumerus -15.2364 4.57974 -90.8241
rradius 26.9134
rwrist 32.8918
rhand -17.9128 -24.1409
rfingers 7.12502
rthumb 8.35451 -53.9556
lclavicle -1.93815e-015 2.18663e-015
lhumerus -14.1367 -27.8655 96.5457
lradius 26.6726
lwrist 8.31946
lhand -24.3411 -5.35474
lfingers 7.12502
lthumb 2.14794 24.6142
rfemur -15.8635 -2.46015 20.4126
rtibia 21.5432
rfoot -12.0675 -2.3746
rtoes 15.7046
lfemur -13.5835 6.59847 -18.9113
ltibia 17.478
lfoot -8.72016 7.68782
ltoes 8.29441
633
root 0.0880096 17.7723 -6.37062 6.95483 -0.698278 -1.16575
lowerback -2.00411 -0.12442 -0.231224
upperback 3.94251 -0.221459 1.42147
thorax 5.20495 -0.151227 1.58693
lowerneck -11.028 0.5023 -1.72382
upperneck 38.1627 0.990334 0.60872
head 15.1449 0.253157 0.720241
rclavicle 2.03754e-015 -3.37934e-015
rhumerus -15.3743 3.78302 -90.5637
rradius 26.452
rwrist 33.4678
rhand -17.9021 -24.153
rfingers 7.12502
rthumb 8.36486 -53.9674
lclavicle 2.03754e-015 -3.37934e-015
lhumerus -14.1921 -26.7143 96.3138
lradius 25.9071
lwrist 7.53967
lhand -24.2695 -5.28378
lfingers 7.12502
lthumb 2.21712 24.6844
rfemur -15.8593 -2.46439 20.4124
rtibia 21.5405
rfoot -12.0781 -2.37948
rtoes 15.7124
lfemur -13.5771 6.59923 -18.911
ltibia 17.4673
lfoot -8.73077 7.68008
ltoes 8.30455
